<?xml version="1.0" encoding="utf-8"?>
<!-- Generator: Adobe Illustrator 23.0.2, SVG Export Plug-In . SVG Version: 6.00 Build 0)  -->
<svg version="1.1" id="Layer_1" xmlns="http://www.w3.org/2000/svg" xmlns:xlink="http://www.w3.org/1999/xlink" x="0px" y="0px"
	 viewBox="0 0 1920 1080" style="enable-background:new 0 0 1920 1080;" xml:space="preserve">
<style type="text/css">
	.st0{fill:#FFFFFF;}
</style>
<g>
	<g>
		<path class="st0" d="M266.5,701.5c44.5,29.2,83.2,66.7,114.3,110.4c7.9-13.7,16.3-26.9,25.4-39.6c-9.6-12.4-19.8-24.3-30.5-35.6
			c-9.4-10-19.3-19.6-29.5-28.6c-24.4-21.9-51.1-41.1-79.6-57.4c-12.1-6.8-24.4-13.2-37-19c-27.2-12.4-55.7-22.1-85.4-29.1l0,44.7
			c29.8,7.8,58.4,18.8,85.4,32.7C242.2,686.5,254.6,693.6,266.5,701.5L266.5,701.5z"/>
		<path class="st0" d="M144.1,328.1c79.2-21.9,173.7-34.6,275.1-34.6c101.3,0,195.8,12.7,275,34.5l0,251.4
			c-29.6,6.7-58.2,16.1-85.5,28l0-192l-379.1,0.1l0,192c-27.3-11.9-55.8-21.2-85.4-27.9L144.1,328.1z"/>
		<path class="st0" d="M536.1,513c-22.1,0-39.9,23-40,51.4l0.1,111.8c24.8-20.3,51.4-38.1,79.6-53.1v-58.7
			C575.8,536,558,513,536.1,513L536.1,513z"/>
		<path class="st0" d="M421.2,513c-22.1,0-39.9,23.1-39.9,51.5l0,147.7c13.3,13.6,26,27.9,37.7,42.9c13-16.6,27.1-32.3,42-47.1
			l-0.1-143.6C460.9,536,443.1,513,421.2,513L421.2,513z"/>
		<path class="st0" d="M306.2,513c-22,0-39.8,23.1-39.8,51.4l0.1,61c28.4,15.4,55.1,33.6,79.7,54.2l-0.1-115.3
			C346.1,536,328.3,513,306.2,513L306.2,513z"/>
		<path class="st0" d="M726.8,634.3c0.6,30.2-1.2,52.5-6.9,74.2c-17.2,66.2-77.8,200.4-289.2,265.3c0,0-5.9,1.7-11.5,3.5
			c-4.7-1.4-9.4-2.8-9.4-2.8c-213.6-64.6-274.4-199.9-291.5-266.2c-5.6-21.5-6.9-44.9-6.7-74.5l0.5-327.2
			c85.1-27.6,191.5-44.1,306.9-44.1c84.2,0,163.6,8.7,233.4,24.1c26.3,5.8,51.2,12.6,74.5,20.2L726.8,634.3z M759.2,284.4
			c-89.8-34.7-209.2-55.8-340.1-55.8c-130.9,0-250.3,21.2-340.1,55.9l0,349.8c0,0-1.4,40.3,6,74.1c15.8,71.2,79.7,225.8,315.4,297
			l18.9,5.7l20.9-6.4c246.2-71.9,307.4-255.6,313.2-297c5.9-28.5,5.8-68.2,5.8-68.2l0-5.7L759.2,284.4z"/>
		<path class="st0" d="M592.2,208.4l14.2-118.7l-74.3,55.9l-16-73.9l-58.5,70.8l-38.9-73.7l-44.3,73l-52.6-64.8l-19.4,69l-72.8-59
			l14,121.5C243.5,208.5,402.3,171.1,592.2,208.4L592.2,208.4z"/>
		<path class="st0" d="M671.2,747.3c-76.5,31.7-139.1,91.4-175.6,166.5l0.1,0.1C597.1,865.7,646.9,799,671.2,747.3L671.2,747.3z"/>
		<path class="st0" d="M468,925.9c0,0,0,0,0-0.1l-0.1,0.2C468,925.9,468,925.9,468,925.9"/>
		<path class="st0" d="M415.8,940.4l-0.4,1.6c1.3,0.4,2.5,0.8,3.8,1.2c17.3-5.2,33.5-11.1,48.7-17.2l0.1-0.2
			C507.1,829,585.5,753.1,682.6,719c7.6-19.2,10.9-33.3,11.4-48.8C562.5,706.1,457.4,808.8,415.8,940.4L415.8,940.4z"/>
		<path class="st0" d="M608.6,631.6c-11.2,5.1-22.1,10.5-32.7,16.5c-28.6,15.9-55.2,34.7-79.8,56c-11.8,10.3-23,21.2-33.7,32.6
			c-10.7,11.4-20.9,23.2-30.5,35.7c-4.4,5.7-8.6,11.5-12.8,17.6c-9.3,13.1-17.8,26.8-25.6,40.8c-3.9,6.9-7.5,13.9-11.1,21.1
			c-8.3,16.7-15.7,34.1-22,51.8c-1.8,5.2-3.6,10.4-5.3,15.8c13,5.8,26.7,11.3,41.3,16.3C440,794,553,683.7,694.2,646.9l0.1-44.5
			C664.4,609.4,635.9,619.1,608.6,631.6L608.6,631.6z"/>
		<path class="st0" d="M155.8,719.2c0.1,0,0.2,0.1,0.3,0.1L155.8,719.2C155.8,719.1,155.8,719.2,155.8,719.2"/>
		<path class="st0" d="M160.9,732.9C160.9,732.9,160.9,732.9,160.9,732.9C160.9,732.9,160.9,732.9,160.9,732.9"/>
		<path class="st0" d="M167.4,747.6c0-0.1,0-0.1-0.1-0.1c23.8,50.7,72.1,115.7,169.6,163.6c0.5-1.8,1-3.5,1.6-5.2
			C301.7,834.7,241,778.3,167.4,747.6L167.4,747.6z"/>
		<path class="st0" d="M266.5,727.9c-12-8.3-24.3-15.9-37-22.9c-26.7-14.6-55.3-26.2-85.1-34.4c0,0,0,0,0-0.1h-0.1
			c-0.2,14.8,2.9,33.6,11.4,48.6l0.4,0.2C237,747.9,304.9,805.5,347.8,880c6.5-16.3,13.8-32.3,21.9-47.9
			C341.9,791.4,306.7,756,266.5,727.9L266.5,727.9z"/>
	</g>
	<g>
		<path class="st0" d="M929.1,494.8L912.5,536l31.7,0L929.1,494.8z M961,582.2l-12.8-34.8l-40.2,0l-13.9,34.8l-13.3,0l35.7-88
			c4.9-12.1,5.7-18.9-4-21.8l0-1l31.9,0l44.5,110.8L961,582.2z"/>
		<path class="st0" d="M1055,481.9l-10.3,0l0,41.1l10.3,0c14.7,0,23-7.2,22.9-20.7C1078,488.9,1069.8,481.9,1055,481.9L1055,481.9z
			 M1084.4,582.1l-35.2-48c0,0,1.2,0-4.4,0l0,48l-25.3,0l0-87c0-14.1-3.5-19.5-12.7-22.8l0-1l61.7,0c23.3,0,35.5,10,35.6,29.3
			c0,16-12.2,24.8-27.3,29.2l39.6,52.4L1084.4,582.1z"/>
		<path class="st0" d="M1235.2,582.1l0-79.7l-37,81.3l-40.4-79.7l0,78.1l-12,0l0-87c0-14.1-3.6-19.4-12.8-22.8l0-1l35.8,0l35.9,70.5
			l31.7-70.5l24.2,0l0,110.8L1235.2,582.1z"/>
		<path class="st0" d="M1339.4,494.8l-16.6,41.2l31.8,0L1339.4,494.8z M1371.3,582.1l-12.8-34.8l-40.2,0l-13.9,34.8l-13.2,0l35.7-88
			c4.9-12.1,5.7-19-4.1-21.8l0-1l31.9,0l44.5,110.8L1371.3,582.1z"/>
		<path class="st0" d="M1506.6,583.4l-63.9-80.9l0,79.6l-13,0l0-87c0.1-14.1-3.5-19.5-12.7-22.8l0-1l34.3,0l56.1,71l0-71l12.9,0
			l0.1,112.1L1506.6,583.4z"/>
		<path class="st0" d="M1606.1,482.1l-15.4,0l0,89.1l14.6,0c23.5,0,41.3-19.1,41.3-44.7C1646.6,502.6,1627.9,482.1,1606.1,482.1
			L1606.1,482.1z M1613.5,582l-48.1,0l0-86.9c0-14.1-3.5-19.5-12.8-22.8l0-1l57.8,0c35.4,0,62.8,24.1,62.7,55.2
			C1673.1,555.9,1647,582,1613.5,582L1613.5,582z"/>
		<path class="st0" d="M1761.3,479.5c-19.3,0-33.1,19.5-33.1,47.1c0.1,27.5,13.8,47,33.2,47c19.4,0.1,33.7-19.5,33.5-47
			C1795,499,1780.7,479.5,1761.3,479.5L1761.3,479.5z M1761.4,584c-33.1,0-59.8-25.3-59.8-57.4c0.1-32.1,26.6-57.4,59.8-57.5
			c33.4,0,60,25.3,60,57.5C1821.5,558.6,1794.8,584,1761.4,584L1761.4,584z"/>
		<path class="st0" d="M930.3,841.2l-10.2,0l0,44.6l10.2,0c14.7,0,23-7.9,23-22.3C953.3,849,945,841.1,930.3,841.2L930.3,841.2z
			 M941.7,896.3l-21.6,0l0,45l-25.3,0l0-87c0-14.1-3.6-19.4-12.8-22.8l0-1.1l59.7,0c26.5,0.1,37.6,14.6,37.6,33
			C979.3,881.7,968.2,896.3,941.7,896.3L941.7,896.3z"/>
		<path class="st0" d="M1102.6,841.1l-10.3,0l0,41l10.3,0c14.8,0,23-7.2,22.9-20.6C1125.6,848.1,1117.4,841.1,1102.6,841.1
			L1102.6,841.1z M1132,941.2l-35.3-48c0,0,1.1,0-4.3,0l0,48l-25.4,0l0-86.9c0-14.1-3.5-19.4-12.8-22.8l0-1.1l61.7,0
			c23.3,0,35.5,10.1,35.5,29.3c0,16.1-12.2,24.8-27.4,29.2l39.6,52.4L1132,941.2z"/>
		<polygon class="st0" points="1248.4,941.2 1248.4,830.4 1273.9,830.4 1273.9,941.2 		"/>
		<path class="st0" d="M1373.9,941.2l0-86.9c0-14.1-3.6-19.4-12.8-22.8l0-1.1l86.7,0l0,11.8l-48.7,0l0,36l38.3,0l0,11.8l-38.2,0
			l0.1,39.4l50.7,0l0,11.7L1373.9,941.2z"/>
		<polygon class="st0" points="1592.1,842.1 1592.1,941.1 1566.7,941.1 1566.7,842.1 1531.3,842.2 1531.3,830.4 1627.5,830.3 
			1627.6,842.1 		"/>
		<path class="st0" d="M1760.5,838.7c-19.4,0-33.2,19.5-33.2,47c0,27.5,13.8,47,33.3,47c19.3,0,33.6-19.5,33.6-47
			C1794.1,858.2,1779.8,838.8,1760.5,838.7L1760.5,838.7z M1760.6,943.2c-33.3,0-59.7-25.4-59.8-57.4c0-32.1,26.5-57.4,59.8-57.4
			c33.3-0.1,60,25.3,60,57.4C1820.7,917.7,1793.9,943.1,1760.6,943.2L1760.6,943.2z"/>
		<path class="st0" d="M944.8,753.9c-35.4,0-60.6-23.9-60.5-57.2c0-33.1,25.1-57.8,58.8-57.8c22.9,0,32.4,4.5,38.8,7.9l-7.6,15.1
			c-5.8-5.7-14.7-12.4-26.5-12.4c-22.8,0-36.9,19.1-36.9,46.5c0,26.7,15,47.3,38.5,47.3c8.2,0.1,13.4-2.2,16.3-3.2l0-15.1
			c0-14.1-3.6-19.4-12.7-22.8l0-1l35.7-0.1l0,45.4C975,751.5,960.9,753.9,944.8,753.9L944.8,753.9z"/>
		<path class="st0" d="M1057.2,753.7c-28.6,0-47.2-14.9-47.2-38.1l0-74.6l25.4,0l0,68.2c0,24.2,7.8,31.4,27.3,31.4
			c17,0,29.1-11.7,29.1-31.7l-0.1-68l12.9,0l0,70.8C1104.7,742.3,1083.5,753.7,1057.2,753.7L1057.2,753.7z"/>
		<polygon class="st0" points="1130.2,751.7 1130.2,641 1155.7,640.9 1155.7,751.7 		"/>
		<path class="st0" d="M1182.2,751.7l0-86.9c0-14.1-3.6-19.4-12.8-22.9l0-1l38.1,0l0.1,98.9l50.7,0l0,11.8L1182.2,751.7z"/>
		<path class="st0" d="M1272.3,751.6l0-86.9c0-14.1-3.6-19.4-12.8-22.8l0-1h38l0.1,99l50.6,0l0,11.8L1272.3,751.6z"/>
		<path class="st0" d="M1362.2,751.6l0-86.9c0.1-14.1-3.5-19.4-12.7-22.8l0-1l86.7,0l0.1,11.8l-48.6,0l0,36.1l38.3,0l0,11.7l-38.2,0
			l0,39.4l50.7,0l0,11.7L1362.2,751.6z"/>
		<path class="st0" d="M1494.1,651.5l-10.3,0l0,41.1l10.2,0c14.7,0,23-7.2,23-20.7C1517.1,658.4,1508.9,651.5,1494.1,651.5
			L1494.1,651.5z M1523.4,751.6l-35.2-47.9c0,0,1.1,0-4.3,0l-0.1,48l-25.3,0l-0.1-87c0-14.1-3.5-19.4-12.7-22.8l0-1l61.8,0
			c23.3,0,35.5,10,35.6,29.2c0.1,16.1-12.3,24.8-27.4,29.2l39.7,52.3L1523.4,751.6z"/>
		<path class="st0" d="M1655.5,751.5l-0.1-79.5l-37,81.2l-40.5-79.7v78l-12,0l0-86.9c-0.1-14.1-3.5-19.5-12.7-22.8l0-1l35.7,0
			l35.9,70.5l31.6-70.5l24.2,0l0,110.7L1655.5,751.5z"/>
		<path class="st0" d="M1758.2,649.2c-19.4,0-33.2,19.4-33.2,46.9c0.1,27.5,13.8,47.1,33.2,47.1c19.4-0.1,33.7-19.5,33.7-47
			C1791.7,668.6,1777.5,649.2,1758.2,649.2L1758.2,649.2z M1758.2,753.6c-33.2-0.1-59.7-25.4-59.7-57.4c0-32.1,26.6-57.4,59.7-57.4
			c33.4,0,60,25.4,60.1,57.4C1818.4,728.2,1791.6,753.5,1758.2,753.6L1758.2,753.6z"/>
		<polygon class="st0" points="861.2,440.3 861.2,436.2 1841,435.9 1841,440.1 		"/>
		<polygon class="st0" points="861.3,613 861.3,608.9 1841,608.7 1841,612.8 		"/>
		<polygon class="st0" points="861.4,786 861.4,781.8 1841.1,781.6 1841.1,785.8 		"/>
		<path class="st0" d="M1206.1,305.8c-5.9-5.7-14.8-12.3-26.4-12.4c-22.9,0-37,19.1-37,46.5c0,26.6,15,47.3,38.5,47.3
			c8.2,0,18.3-2.4,31.4-12.1l0,15.6c-14.2,5.2-23.1,7-35.8,7c-35.4,0-60.6-23.8-60.6-57.2c0-33,25.1-57.7,58.8-57.7
			c22.8,0,32.4,4.5,38.8,7.9L1206.1,305.8z"/>
		<path class="st0" d="M1287.5,308.4l-16.6,41.1l31.7-0.1L1287.5,308.4z M1319.5,395.6l-12.8-34.7l-40.3,0l-13.9,34.7l-13.3,0
			l35.7-88c4.9-12,5.7-18.9-4-21.8l0-1l31.9,0l44.5,110.7L1319.5,395.6z"/>
		<path class="st0" d="M1414.6,397.6c-17.9,0-30.7-4.5-42.5-12.8l11.3-12.6c9.2,9.4,18.6,15,31.2,14.9c12.4,0,21.5-6,21.5-15.2
			c0.1-7.9-4.9-13.3-29.5-22.3c-21.9-7.9-32.1-18.8-32.1-34.2c-0.1-18.7,17.3-32.6,40.3-32.6c18.6,0,30.7,7,38.4,12.6l-10.9,12.2
			c-6.8-7.9-16.8-14.4-28.2-14.4c-11.5,0-19.6,5.6-19.7,14.6c0,9.4,5.4,12.6,28.3,21.1c23.7,8.9,32.6,19.4,32.7,35.1
			C1455.3,383.1,1437.5,397.5,1414.6,397.6L1414.6,397.6z"/>
		<path class="st0" d="M1526.4,308.3l-16.6,41.1l31.7,0L1526.4,308.3z M1558.3,395.5l-12.7-34.7l-40.3,0l-13.9,34.7l-13.2,0l35.7-88
			c4.9-12.1,5.7-19-4-21.8l0-1l31.9,0l44.5,110.7L1558.3,395.5z"/>
	</g>
</g>
</svg>
