<?xml version="1.0" encoding="utf-8"?>
<!-- Generator: Adobe Illustrator 27.8.1, SVG Export Plug-In . SVG Version: 6.00 Build 0)  -->
<svg version="1.1" id="Layer_1" xmlns="http://www.w3.org/2000/svg" xmlns:xlink="http://www.w3.org/1999/xlink" x="0px" y="0px"
	 viewBox="0 0 1920 1080" style="enable-background:new 0 0 1920 1080;" xml:space="preserve">
<style type="text/css">
	.st0{fill:#FFFFFF;}
</style>
<g>
	<g>
		<g>
			<g>
				<path class="st0" d="M237.2,707.2c46.1,30.2,86.2,69,118.4,114.3c8.2-14.1,16.9-27.9,26.3-41c-9.9-12.8-20.5-25.1-31.6-36.9
					c-9.7-10.4-20-20.3-30.5-29.7c-25.3-22.6-52.9-42.6-82.5-59.4c-12.5-7.1-25.3-13.6-38.3-19.6c-28.2-12.9-57.7-22.9-88.4-30.2
					l0,46.3c30.9,8.1,60.4,19.5,88.4,33.9C212,691.7,224.9,699.1,237.2,707.2L237.2,707.2z"/>
				<path class="st0" d="M110.4,320.6c82-22.7,179.8-35.8,284.8-35.8c104.9,0,202.7,13.1,284.7,35.7l0,260.3
					c-30.6,6.9-60.2,16.7-88.5,29l0-198.8l-392.6,0.1l0,198.8c-28.3-12.3-57.8-22-88.4-28.9L110.4,320.6z"/>
				<path class="st0" d="M516.3,512c-22.9,0-41.3,23.8-41.4,53.2l0.1,115.8c25.7-21,53.2-39.5,82.4-55v-60.8
					C557.5,535.8,539.1,512,516.3,512L516.3,512z"/>
				<path class="st0" d="M397.4,512c-22.8,0-41.3,23.9-41.3,53.3l0,152.9c13.8,14.1,26.9,28.8,39,44.5
					c13.5-17.2,28.1-33.4,43.5-48.8l-0.1-148.7C438.5,535.9,420,512,397.4,512L397.4,512z"/>
				<path class="st0" d="M278.4,512.1c-22.7,0-41.2,23.9-41.2,53.3l0.1,63.1c29.4,16,57,34.8,82.5,56.2l-0.1-119.3
					C319.6,535.9,301.2,512,278.4,512.1L278.4,512.1z"/>
				<path class="st0" d="M713.8,637.6c0.6,31.3-1.2,54.3-7.1,76.9C688.9,783,626.1,922,407.3,989.1c0,0-6.2,1.8-11.9,3.6
					c-4.8-1.5-9.7-2.9-9.7-2.9C164.4,923,101.5,782.8,83.8,714.2c-5.8-22.3-7.2-46.5-6.9-77.1l0.5-338.8
					c88.1-28.6,198.3-45.7,317.8-45.7c87.2,0,169.4,9,241.7,25c27.2,6,53,13,77.1,20.9L713.8,637.6z M747.3,275.4
					c-93-35.9-216.6-57.8-352.1-57.8c-135.6,0-259.2,22-352.2,57.9l0,362.2c0,0-1.5,41.7,6.2,76.7c16.3,73.7,82.5,233.8,326.6,307.5
					l19.5,5.9l21.7-6.6C672,946.9,735.3,756.7,741.4,713.8c6.1-29.5,6-70.6,6-70.6l0-5.9L747.3,275.4z"/>
				<path class="st0" d="M574.4,196.6l14.7-122.9l-76.9,57.8l-16.6-76.5l-60.5,73.3l-40.3-76.4l-45.9,75.6l-54.5-67.1L274.3,132
					l-75.4-61.1l14.5,125.8C213.4,196.7,377.8,158,574.4,196.6L574.4,196.6z"/>
				<path class="st0" d="M656.2,754.6c-79.3,32.8-144,94.6-181.8,172.4l0.1,0.1C579.5,877.2,631.1,808.2,656.2,754.6L656.2,754.6z"
					/>
				<path class="st0" d="M445.9,939.6c0,0,0,0,0-0.1l-0.1,0.2C445.8,939.6,445.8,939.6,445.9,939.6"/>
				<path class="st0" d="M391.8,954.6l-0.4,1.7c1.3,0.5,2.5,0.9,3.9,1.2c17.9-5.4,34.7-11.5,50.4-17.8l0.1-0.2
					c40.5-100.2,121.7-178.8,222.2-214.1c7.9-19.9,11.3-34.5,11.8-50.5C543.7,712,434.9,818.3,391.8,954.6L391.8,954.6z"/>
				<path class="st0" d="M591.5,634.9c-11.6,5.2-22.9,10.9-33.8,17.1c-29.6,16.5-57.1,35.9-82.7,58c-12.2,10.7-23.8,21.9-34.9,33.7
					c-11.1,11.8-21.6,24.1-31.6,37c-4.6,5.9-8.9,11.9-13.3,18.2c-9.6,13.6-18.4,27.7-26.5,42.3c-4,7.2-7.8,14.4-11.5,21.8
					c-8.5,17.3-16.2,35.3-22.8,53.7c-1.8,5.4-3.7,10.8-5.4,16.3c13.4,6,27.6,11.7,42.8,16.9c45.2-146.8,162.2-261,308.4-299.1
					l0.1-46C649.3,611.8,619.7,621.9,591.5,634.9L591.5,634.9z"/>
				<path class="st0" d="M122.6,725.6c0.1,0,0.2,0.1,0.4,0.1L122.6,725.6C122.6,725.5,122.6,725.6,122.6,725.6"/>
				<path class="st0" d="M127.9,739.8C127.9,739.7,127.9,739.7,127.9,739.8C127.9,739.7,127.9,739.7,127.9,739.8"/>
				<path class="st0" d="M134.6,755c0-0.1,0-0.1-0.1-0.1c24.6,52.5,74.6,119.8,175.6,169.4c0.6-1.8,1.1-3.7,1.6-5.4
					C273.6,845.1,210.8,786.8,134.6,755L134.6,755z"/>
				<path class="st0" d="M237.2,734.5c-12.4-8.6-25.1-16.5-38.3-23.7c-27.7-15.1-57.2-27.1-88.1-35.6c0,0,0,0,0-0.1h-0.1
					c-0.2,15.3,3,34.7,11.8,50.4l0.4,0.2c83.7,29.6,154,89.2,198.4,166.3c6.7-16.9,14.3-33.4,22.7-49.6
					C315.3,800.3,278.9,763.7,237.2,734.5L237.2,734.5z"/>
			</g>
		</g>
	</g>
	<g>
		<path class="st0" d="M658.8,951.1c5.3,0,10.5,1.4,15.5,4.1c5,2.7,9,6.6,11.8,11.7c2.8,5.1,4.2,10.3,4.2,15.8
			c0,5.4-1.4,10.7-4.2,15.7c-2.8,5-6.7,8.9-11.7,11.7c-5,2.8-10.2,4.2-15.7,4.2c-5.5,0-10.7-1.4-15.7-4.2c-5-2.8-8.9-6.7-11.7-11.7
			c-2.8-5-4.2-10.3-4.2-15.7c0-5.5,1.4-10.8,4.2-15.8c2.8-5.1,6.8-9,11.8-11.7C648.3,952.5,653.5,951.1,658.8,951.1z M658.8,956.3
			c-4.4,0-8.8,1.1-13,3.4c-4.2,2.3-7.5,5.5-9.9,9.7c-2.4,4.2-3.6,8.6-3.6,13.2c0,4.5,1.2,8.9,3.5,13.1c2.3,4.2,5.6,7.4,9.8,9.8
			c4.2,2.3,8.5,3.5,13.1,3.5c4.5,0,8.9-1.2,13.1-3.5c4.2-2.3,7.4-5.6,9.7-9.8c2.3-4.2,3.5-8.5,3.5-13.1c0-4.6-1.2-9-3.5-13.2
			c-2.4-4.2-5.6-7.5-9.9-9.7C667.5,957.5,663.2,956.3,658.8,956.3z M644.9,1000.1v-34h11.7c4,0,6.9,0.3,8.7,0.9
			c1.8,0.6,3.2,1.7,4.3,3.3c1.1,1.6,1.6,3.2,1.6,5c0,2.5-0.9,4.6-2.7,6.5s-4.1,2.9-7,3.1c1.2,0.5,2.2,1.1,2.9,1.8
			c1.4,1.3,3,3.6,5,6.7l4.1,6.7h-6.7l-3-5.4c-2.4-4.2-4.3-6.8-5.7-7.9c-1-0.8-2.5-1.2-4.4-1.2h-3.2v14.4H644.9z M650.4,981h6.7
			c3.2,0,5.3-0.5,6.5-1.4c1.2-1,1.7-2.2,1.7-3.8c0-1-0.3-1.9-0.8-2.7c-0.6-0.8-1.3-1.4-2.3-1.8c-1-0.4-2.8-0.6-5.5-0.6h-6.2V981z"/>
	</g>
	<g>
		<path class="st0" d="M882.8,785l13.7,0l14.4-36l41.7,0l13.2,36l28.9,0l-46.1-114.7l-33,0l0,1c10.1,3,9.2,10.1,4.2,22.6L882.8,785z
			 M932.9,694.6l15.6,42.6l-32.9,0L932.9,694.6z"/>
		<path class="st0" d="M1113.9,700.6c0-19.9-12.7-30.3-36.8-30.3l-63.9,0l0,1.1c9.5,3.4,13.2,9,13.2,23.6l0,90.1l26.2,0l0-49.7
			c3.3,0,4.3,0,4.6,0l36.4,49.7l33,0l-41-54.2C1101.3,726.3,1113.9,717.2,1113.9,700.6z M1063.2,723.8l-10.6,0l0-42.6l10.6,0
			c15.3,0,23.8,7.3,23.8,21.2C1087,716.3,1078.5,723.8,1063.2,723.8z"/>
		<path class="st0" d="M1249.7,702.5l0,82.5l26.3-0.1l0-114.7l-25,0l-32.8,73l-37.1-73l-37.1,0l0,1.1c9.5,3.5,13.2,9,13.2,23.6
			l0,90.1l12.4,0l0-80.8l41.9,82.6L1249.7,702.5z"/>
		<path class="st0" d="M1307.7,785l13.7,0l14.4-36l41.6,0l13.3,36l28.8-0.1l-46.1-114.7l-33,0l0,1c10.1,3,9.2,10.1,4.2,22.6
			L1307.7,785z M1357.7,694.5l15.7,42.6l-32.9,0L1357.7,694.5z"/>
		<path class="st0" d="M1438,670.2l0,1c9.5,3.5,13.3,9.1,13.1,23.7l0,90l13.4,0l0-82.4l66.2,83.8l14.2,0l-0.1-116.1l-13.4,0l0,73.6
			l-58.1-73.5L1438,670.2z"/>
		<path class="st0" d="M1591.6,694.8l0,90l49.9,0c34.7,0,61.7-27,61.6-57.5c0-32.2-28.3-57.2-64.9-57.2l-59.8,0l0,1
			C1588,674.6,1591.6,680.3,1591.6,694.8z M1633.8,681.4c22.7,0,42,21.2,42,45.9c0,26.5-18.5,46.3-42.8,46.3l-15.1,0l0-92.2
			L1633.8,681.4z"/>
		<path class="st0" d="M1856.8,727.5c0-33.3-27.5-59.5-62.1-59.5c-34.4,0-61.9,26.2-61.9,59.5c0,33.2,27.6,59.4,61.9,59.4
			C1829.2,786.9,1856.8,760.6,1856.8,727.5z M1760.2,727.5c0.1-28.5,14.3-48.7,34.3-48.7c20.1,0,34.8,20.2,34.8,48.7
			c0.1,28.5-14.6,48.7-34.7,48.6C1774.5,776.2,1760.3,756,1760.2,727.5z"/>
		
			<rect x="862.6" y="433.5" transform="matrix(1 -1.155058e-03 1.155058e-03 1 -0.5091 1.5825)" class="st0" width="1014.5" height="16.1"/>
		
			<rect x="862.6" y="619.8" transform="matrix(1 -1.045584e-03 1.045584e-03 1 -0.6557 1.4326)" class="st0" width="1014.5" height="16.1"/>
		
			<rect x="862.6" y="831.3" transform="matrix(1 -1.045584e-03 1.045584e-03 1 -0.8769 1.4327)" class="st0" width="1014.5" height="16.1"/>
		<path class="st0" d="M1192.3,486.1c12.1,0,21.3,6.9,27.4,12.8l7.8-15.6c-6.6-3.4-16.5-8.1-40.2-8.1c-34.9,0-60.9,25.6-60.9,59.8
			c0,34.6,26.1,59.2,62.7,59.2c13.2,0,22.4-1.9,37.1-7.3l0-16.1c-13.5,10.1-24,12.5-32.5,12.5c-24.3,0-39.8-21.4-39.8-49
			C1154,505.9,1168.6,486.1,1192.3,486.1z"/>
		<path class="st0" d="M1254,591.9l13.7,0l14.4-36l41.7,0l13.2,36l28.9,0l-46.1-114.7l-33,0l0,1.1c10.1,3,9.2,10.1,4.2,22.6
			L1254,591.9z M1304,501.5l15.6,42.5l-32.8,0.1L1304,501.5z"/>
		<path class="st0" d="M1435.5,583.1c-13.1,0-22.7-5.7-32.3-15.5l-11.6,13c12.2,8.5,25.5,13.2,44,13.2c23.7,0,42.2-14.9,42.1-34.7
			c-0.1-16.2-9.3-27.1-33.9-36.3c-23.6-8.9-29.2-12.1-29.3-21.9c0.1-9.4,8.4-15.1,20.4-15.1c11.8,0,22.1,6.8,29.2,14.9l11.3-12.7
			c-8-5.7-20.5-13-39.7-13c-23.8,0-41.8,14.4-41.7,33.7c0,15.9,10.6,27.3,33.2,35.4c25.5,9.4,30.6,14.9,30.5,23.1
			C1457.7,576.9,1448.4,583.1,1435.5,583.1z"/>
		<path class="st0" d="M1501.3,591.8l13.7,0l14.4-35.9l41.7,0l13.2,36l28.8,0l-46.1-114.7l-33,0l0,1c10.1,2.9,9.2,10.1,4.2,22.6
			L1501.3,591.8z M1551.3,501.4l15.6,42.6l-32.8,0L1551.3,501.4z"/>
		<path class="st0" d="M884,310.3l0,90.1l12.4,0l0-80.8l41.9,82.6l38.3-84.2l0,82.5l26.3-0.1l0-114.7l-25,0l-32.8,73l-37.1-73
			l-37.1,0l0,1.1C880.3,290.2,884,295.7,884,310.3z"/>
		<path class="st0" d="M1052.5,309.5l0,90l78.7-0.1l0-12.1l-52.5,0l0-40.8l39.5,0l0-12.1l-39.6,0l0-37.4l50.4,0l-0.1-12.2l-89.8,0
			l0,1C1048.8,289.4,1052.5,294.9,1052.5,309.5z"/>
		<path class="st0" d="M1344.2,401.5c13.2,0,22.4-1.9,37.1-7.3l0-16.1c-13.5,10.1-24,12.5-32.5,12.5c-24.3,0-39.8-21.4-39.8-49
			c0.1-28.3,14.6-48.1,38.4-48.1c12.1,0,21.3,6.9,27.4,12.8l7.8-15.6c-6.6-3.4-16.5-8.1-40.2-8.1c-34.9,0-60.9,25.6-60.9,59.8
			C1281.5,376.8,1307.6,401.5,1344.2,401.5z"/>
		<path class="st0" d="M1403.4,398.3l13.7,0l14.4-36l41.7,0l13.2,36l28.9,0l-46.1-114.7l-33,0l0,1.1c10.1,3,9.2,10.1,4.2,22.6
			L1403.4,398.3z M1453.4,307.9l15.6,42.5l-32.8,0.1L1453.4,307.9z"/>
		<path class="st0" d="M1547.4,309.3l0,90l78.6,0l0-12.2l-52.4,0l-0.1-102.5h-39.4l0,1.1C1543.7,289.2,1547.3,294.7,1547.4,309.3z"
			/>
		<path class="st0" d="M1659.3,308.3l0,90l78.7-0.1l0-12.1l-52.5,0l0-40.8l39.5,0l0-12.1l-39.6,0l0-37.4l50.4,0l-0.1-12.2l-89.8,0
			l0,1C1655.7,288.1,1659.4,293.7,1659.3,308.3z"/>
		<path class="st0" d="M1810.6,389.8c-13.1,0-22.7-5.7-32.3-15.5l-11.6,13c12.2,8.5,25.5,13.2,44,13.2c23.7,0,42.2-14.9,42.1-34.7
			c-0.1-16.2-9.3-27.1-33.9-36.3c-23.6-8.9-29.2-12.1-29.3-21.9c0.1-9.4,8.4-15.1,20.4-15.1c11.8,0,22.1,6.8,29.2,14.9l11.3-12.7
			c-8-5.7-20.5-13-39.7-13c-23.8,0-41.8,14.4-41.7,33.7c0,15.9,10.6,27.3,33.2,35.4c25.5,9.4,30.6,14.9,30.5,23.1
			C1832.9,383.6,1823.5,389.8,1810.6,389.8z"/>
		<path class="st0" d="M1261.2,387.3h-62l59.9-100.5v-1.9H1168l-5.6,24.8h1.6c1.5-7.3,8.6-12.1,18.6-12.1h36.4l-58.6,99.6v1.9h100.1
			L1261.2,387.3z"/>
	</g>
</g>
</svg>
