<?xml version="1.0" encoding="utf-8"?>
<!-- Generator: Adobe Illustrator 27.8.1, SVG Export Plug-In . SVG Version: 6.00 Build 0)  -->
<svg version="1.1" id="Capa_1" xmlns="http://www.w3.org/2000/svg" xmlns:xlink="http://www.w3.org/1999/xlink" x="0px" y="0px"
	 viewBox="0 0 228.6 127.5" style="enable-background:new 0 0 228.6 127.5;" xml:space="preserve">
<style type="text/css">
	.st0{fill:#D9B652;}
</style>
<g>
	<g>
		<g>
			<g>
				<path class="st0" d="M27.6,83.8c5.5,3.6,10.3,8.3,14.2,13.7c1-1.7,2-3.3,3.2-4.9c-1.2-1.5-2.5-3-3.8-4.4
					c-1.2-1.2-2.4-2.4-3.7-3.6c-3-2.7-6.4-5.1-9.9-7.1c-1.5-0.8-3-1.6-4.6-2.4c-3.4-1.5-6.9-2.7-10.6-3.6l0,5.6
					c3.7,1,7.3,2.3,10.6,4.1C24.5,82,26.1,82.8,27.6,83.8L27.6,83.8z"/>
				<path class="st0" d="M12.4,37.4c9.8-2.7,21.6-4.3,34.2-4.3c12.6,0,24.3,1.6,34.2,4.3l0,31.2c-3.7,0.8-7.2,2-10.6,3.5l0-23.9
					l-47.1,0l0,23.9c-3.4-1.5-6.9-2.6-10.6-3.5L12.4,37.4z"/>
				<path class="st0" d="M61.1,60.4c-2.7,0-5,2.9-5,6.4l0,13.9c3.1-2.5,6.4-4.7,9.9-6.6v-7.3C66,63.3,63.8,60.4,61.1,60.4L61.1,60.4
					z"/>
				<path class="st0" d="M46.8,60.4c-2.7,0-5,2.9-5,6.4l0,18.4c1.7,1.7,3.2,3.5,4.7,5.3c1.6-2.1,3.4-4,5.2-5.9l0-17.8
					C51.7,63.3,49.5,60.4,46.8,60.4L46.8,60.4z"/>
				<path class="st0" d="M32.5,60.4c-2.7,0-4.9,2.9-4.9,6.4l0,7.6c3.5,1.9,6.8,4.2,9.9,6.7l0-14.3C37.5,63.3,35.2,60.4,32.5,60.4
					L32.5,60.4z"/>
				<path class="st0" d="M84.8,75.5c0.1,3.8-0.1,6.5-0.9,9.2c-2.1,8.2-9.7,24.9-35.9,33c0,0-0.7,0.2-1.4,0.4
					c-0.6-0.2-1.2-0.3-1.2-0.3c-26.5-8-34.1-24.8-36.2-33.1c-0.7-2.7-0.9-5.6-0.8-9.3l0.1-40.7c10.6-3.4,23.8-5.5,38.1-5.5
					c10.5,0,20.3,1.1,29,3c3.3,0.7,6.4,1.6,9.3,2.5L84.8,75.5z M88.8,32c-11.2-4.3-26-6.9-42.3-6.9c-16.3,0-31.1,2.6-42.3,6.9
					l0,43.5c0,0-0.2,5,0.7,9.2c2,8.8,9.9,28.1,39.2,36.9l2.3,0.7l2.6-0.8c30.6-8.9,38.2-31.8,38.9-36.9c0.7-3.5,0.7-8.5,0.7-8.5
					l0-0.7L88.8,32z"/>
				<path class="st0" d="M68,22.5l1.8-14.7l-9.2,6.9l-2-9.2l-7.3,8.8l-4.8-9.2L41,14.3l-6.5-8.1L32,14.8l-9-7.3l1.7,15.1
					C24.7,22.6,44.4,17.9,68,22.5L68,22.5z"/>
				<path class="st0" d="M77.8,89.5c-9.5,3.9-17.3,11.4-21.8,20.7l0,0C68.6,104.2,74.8,95.9,77.8,89.5L77.8,89.5z"/>
				<path class="st0" d="M52.6,111.7C52.6,111.7,52.6,111.7,52.6,111.7L52.6,111.7C52.6,111.7,52.6,111.7,52.6,111.7"/>
				<path class="st0" d="M46.1,113.5l-0.1,0.2c0.2,0.1,0.3,0.1,0.5,0.1c2.1-0.7,4.2-1.4,6.1-2.1l0,0c4.9-12,14.6-21.5,26.7-25.7
					c0.9-2.4,1.4-4.1,1.4-6.1C64.3,84.4,51.3,97.1,46.1,113.5L46.1,113.5z"/>
				<path class="st0" d="M70.1,75.1c-1.4,0.6-2.7,1.3-4.1,2c-3.5,2-6.9,4.3-9.9,7c-1.5,1.3-2.9,2.6-4.2,4c-1.3,1.4-2.6,2.9-3.8,4.4
					c-0.5,0.7-1.1,1.4-1.6,2.2c-1.2,1.6-2.2,3.3-3.2,5.1c-0.5,0.9-0.9,1.7-1.4,2.6c-1,2.1-1.9,4.2-2.7,6.4c-0.2,0.6-0.4,1.3-0.7,2
					c1.6,0.7,3.3,1.4,5.1,2c5.4-17.6,19.5-31.3,37-35.9l0-5.5C77,72.4,73.5,73.6,70.1,75.1L70.1,75.1z"/>
				<path class="st0" d="M13.8,86C13.8,86,13.8,86,13.8,86L13.8,86C13.8,86,13.8,86,13.8,86"/>
				<polyline class="st0" points="14.4,87.7 14.4,87.7 14.4,87.7 				"/>
				<path class="st0" d="M15.3,89.5C15.3,89.5,15.3,89.5,15.3,89.5c2.9,6.3,8.9,14.4,21.1,20.3c0.1-0.2,0.1-0.4,0.2-0.6
					C31.9,100.4,24.4,93.4,15.3,89.5L15.3,89.5z"/>
				<path class="st0" d="M27.6,87.1c-1.5-1-3-2-4.6-2.8c-3.3-1.8-6.9-3.3-10.6-4.3c0,0,0,0,0,0h0c0,1.8,0.4,4.2,1.4,6l0.1,0
					c10,3.5,18.5,10.7,23.8,20c0.8-2,1.7-4,2.7-5.9C36.9,95,32.6,90.6,27.6,87.1L27.6,87.1z"/>
			</g>
		</g>
	</g>
	<g>
		<path class="st0" d="M78.2,113.1c0.6,0,1.3,0.2,1.9,0.5c0.6,0.3,1.1,0.8,1.4,1.4s0.5,1.2,0.5,1.9c0,0.7-0.2,1.3-0.5,1.9
			c-0.3,0.6-0.8,1.1-1.4,1.4c-0.6,0.3-1.2,0.5-1.9,0.5c-0.7,0-1.3-0.2-1.9-0.5c-0.6-0.3-1.1-0.8-1.4-1.4c-0.3-0.6-0.5-1.2-0.5-1.9
			c0-0.7,0.2-1.3,0.5-1.9c0.3-0.6,0.8-1.1,1.4-1.4C76.9,113.2,77.5,113.1,78.2,113.1z M78.2,113.7c-0.5,0-1.1,0.1-1.6,0.4
			s-0.9,0.7-1.2,1.2c-0.3,0.5-0.4,1-0.4,1.6c0,0.5,0.1,1.1,0.4,1.6c0.3,0.5,0.7,0.9,1.2,1.2c0.5,0.3,1,0.4,1.6,0.4
			c0.5,0,1.1-0.1,1.6-0.4s0.9-0.7,1.2-1.2c0.3-0.5,0.4-1,0.4-1.6c0-0.5-0.1-1.1-0.4-1.6c-0.3-0.5-0.7-0.9-1.2-1.2
			C79.2,113.8,78.7,113.7,78.2,113.7z M76.5,119v-4.1h1.4c0.5,0,0.8,0,1,0.1c0.2,0.1,0.4,0.2,0.5,0.4c0.1,0.2,0.2,0.4,0.2,0.6
			c0,0.3-0.1,0.6-0.3,0.8s-0.5,0.3-0.8,0.4c0.1,0.1,0.3,0.1,0.3,0.2c0.2,0.2,0.4,0.4,0.6,0.8l0.5,0.8h-0.8l-0.4-0.6
			c-0.3-0.5-0.5-0.8-0.7-0.9c-0.1-0.1-0.3-0.1-0.5-0.1h-0.4v1.7H76.5z M77.1,116.7h0.8c0.4,0,0.6-0.1,0.8-0.2
			c0.1-0.1,0.2-0.3,0.2-0.5c0-0.1,0-0.2-0.1-0.3c-0.1-0.1-0.2-0.2-0.3-0.2c-0.1,0-0.3-0.1-0.7-0.1h-0.7V116.7z"/>
	</g>
	<g>
		<path class="st0" d="M105,93.2l1.6,0l1.7-4.3l5,0l1.6,4.3l3.5,0l-5.5-13.8l-4,0l0,0.1c1.2,0.4,1.1,1.2,0.5,2.7L105,93.2z
			 M111,82.3l1.9,5.1l-3.9,0L111,82.3z"/>
		<path class="st0" d="M132.8,83c0-2.4-1.5-3.6-4.4-3.6l-7.7,0l0,0.1c1.1,0.4,1.6,1.1,1.6,2.8l0,10.8l3.1,0l0-6c0.4,0,0.5,0,0.5,0
			l4.4,6l4,0l-4.9-6.5C131.3,86.1,132.8,85,132.8,83z M126.7,85.8l-1.3,0l0-5.1l1.3,0c1.8,0,2.9,0.9,2.9,2.5
			C129.5,84.9,128.5,85.8,126.7,85.8z"/>
		<path class="st0" d="M149.1,83.3l0,9.9l3.2,0l0-13.8l-3,0l-3.9,8.8l-4.5-8.8l-4.4,0l0,0.1c1.1,0.4,1.6,1.1,1.6,2.8l0,10.8l1.5,0
			l0-9.7l5,9.9L149.1,83.3z"/>
		<path class="st0" d="M156,93.1l1.6,0l1.7-4.3l5,0l1.6,4.3l3.5,0l-5.5-13.8l-4,0l0,0.1c1.2,0.4,1.1,1.2,0.5,2.7L156,93.1z
			 M162,82.3l1.9,5.1l-3.9,0L162,82.3z"/>
		<path class="st0" d="M171.7,79.4l0,0.1c1.1,0.4,1.6,1.1,1.6,2.8l0,10.8l1.6,0l0-9.9l7.9,10.1l1.7,0l0-13.9l-1.6,0l0,8.8l-7-8.8
			L171.7,79.4z"/>
		<path class="st0" d="M190.1,82.3l0,10.8l6,0c4.2,0,7.4-3.2,7.4-6.9c0-3.9-3.4-6.9-7.8-6.9l-7.2,0l0,0.1
			C189.7,79.9,190.1,80.6,190.1,82.3z M195.2,80.7c2.7,0,5,2.5,5,5.5c0,3.2-2.2,5.6-5.1,5.6l-1.8,0l0-11.1L195.2,80.7z"/>
		<path class="st0" d="M221.9,86.3c0-4-3.3-7.1-7.5-7.1c-4.1,0-7.4,3.1-7.4,7.1c0,4,3.3,7.1,7.4,7.1
			C218.6,93.4,221.9,90.2,221.9,86.3z M210.3,86.3c0-3.4,1.7-5.8,4.1-5.8c2.4,0,4.2,2.4,4.2,5.8c0,3.4-1.8,5.8-4.2,5.8
			C212,92.1,210.3,89.7,210.3,86.3z"/>
		
			<rect x="102.6" y="51" transform="matrix(1 -1.155058e-03 1.155058e-03 1 -5.987790e-02 0.1889)" class="st0" width="121.7" height="1.9"/>
		
			<rect x="102.6" y="73.3" transform="matrix(1 -1.045584e-03 1.045584e-03 1 -7.758640e-02 0.171)" class="st0" width="121.7" height="1.9"/>
		
			<rect x="102.6" y="98.7" transform="matrix(1 -1.045584e-03 1.045584e-03 1 -0.1041 0.171)" class="st0" width="121.7" height="1.9"/>
		<path class="st0" d="M142.2,57.3c1.5,0,2.6,0.8,3.3,1.5l0.9-1.9c-0.8-0.4-2-1-4.8-1c-4.2,0-7.3,3.1-7.3,7.2c0,4.2,3.1,7.1,7.5,7.1
			c1.6,0,2.7-0.2,4.5-0.9l0-1.9c-1.6,1.2-2.9,1.5-3.9,1.5c-2.9,0-4.8-2.6-4.8-5.9C137.6,59.7,139.3,57.3,142.2,57.3z"/>
		<path class="st0" d="M149.6,70l1.6,0l1.7-4.3l5,0l1.6,4.3l3.5,0l-5.5-13.8l-4,0l0,0.1c1.2,0.4,1.1,1.2,0.5,2.7L149.6,70z
			 M155.6,59.1l1.9,5.1l-3.9,0L155.6,59.1z"/>
		<path class="st0" d="M171.4,68.9c-1.6,0-2.7-0.7-3.9-1.9l-1.4,1.6c1.5,1,3.1,1.6,5.3,1.6c2.8,0,5.1-1.8,5.1-4.2
			c0-1.9-1.1-3.3-4.1-4.4c-2.8-1.1-3.5-1.5-3.5-2.6c0-1.1,1-1.8,2.4-1.8c1.4,0,2.7,0.8,3.5,1.8l1.4-1.5c-1-0.7-2.5-1.6-4.8-1.6
			c-2.9,0-5,1.7-5,4c0,1.9,1.3,3.3,4,4.3c3.1,1.1,3.7,1.8,3.7,2.8C174,68.2,172.9,68.9,171.4,68.9z"/>
		<path class="st0" d="M179.3,70l1.6,0l1.7-4.3l5,0l1.6,4.3l3.5,0l-5.5-13.8l-4,0l0,0.1c1.2,0.4,1.1,1.2,0.5,2.7L179.3,70z
			 M185.3,59.1l1.9,5.1l-3.9,0L185.3,59.1z"/>
		<path class="st0" d="M105.2,36.2l0,10.8l1.5,0l0-9.7l5,9.9l4.6-10.1l0,9.9l3.2,0l0-13.8l-3,0l-3.9,8.8l-4.5-8.8l-4.4,0l0,0.1
			C104.7,33.8,105.2,34.4,105.2,36.2z"/>
		<path class="st0" d="M125.4,36.1l0,10.8l9.4,0l0-1.5l-6.3,0l0-4.9l4.7,0l0-1.5l-4.8,0l0-4.5l6,0l0-1.5l-10.8,0l0,0.1
			C125,33.7,125.4,34.3,125.4,36.1z"/>
		<path class="st0" d="M160.4,47.1c1.6,0,2.7-0.2,4.5-0.9l0-1.9c-1.6,1.2-2.9,1.5-3.9,1.5c-2.9,0-4.8-2.6-4.8-5.9
			c0-3.4,1.8-5.8,4.6-5.8c1.5,0,2.6,0.8,3.3,1.5l0.9-1.9c-0.8-0.4-2-1-4.8-1c-4.2,0-7.3,3.1-7.3,7.2C152.9,44.2,156,47.1,160.4,47.1
			z"/>
		<path class="st0" d="M167.5,46.7l1.6,0l1.7-4.3l5,0l1.6,4.3l3.5,0L175.4,33l-4,0l0,0.1c1.2,0.4,1.1,1.2,0.5,2.7L167.5,46.7z
			 M173.5,35.9l1.9,5.1l-3.9,0L173.5,35.9z"/>
		<path class="st0" d="M184.8,36.1l0,10.8l9.4,0l0-1.5l-6.3,0l0-12.3h-4.7l0,0.1C184.3,33.7,184.8,34.3,184.8,36.1z"/>
		<path class="st0" d="M198.2,35.9l0,10.8l9.4,0l0-1.5l-6.3,0l0-4.9l4.7,0l0-1.5l-4.8,0l0-4.5l6,0l0-1.5l-10.8,0l0,0.1
			C197.8,33.5,198.2,34.2,198.2,35.9z"/>
		<path class="st0" d="M216.4,45.7c-1.6,0-2.7-0.7-3.9-1.9l-1.4,1.6c1.5,1,3.1,1.6,5.3,1.6c2.8,0,5.1-1.8,5.1-4.2
			c0-1.9-1.1-3.3-4.1-4.4c-2.8-1.1-3.5-1.5-3.5-2.6c0-1.1,1-1.8,2.4-1.8c1.4,0,2.7,0.8,3.5,1.8l1.4-1.5c-1-0.7-2.5-1.6-4.8-1.6
			c-2.9,0-5,1.7-5,4c0,1.9,1.3,3.3,4,4.3c3.1,1.1,3.7,1.8,3.7,2.8C219,45,217.9,45.7,216.4,45.7z"/>
		<path class="st0" d="M150.4,45.4H143l7.2-12.1v-0.2h-10.9l-0.7,3h0.2c0.2-0.9,1-1.5,2.2-1.5h4.4l-7,12v0.2h12L150.4,45.4z"/>
	</g>
</g>
</svg>
