<?xml version="1.0" encoding="utf-8"?>
<!-- Generator: Adobe Illustrator 23.0.2, SVG Export Plug-In . SVG Version: 6.00 Build 0)  -->
<svg version="1.1" id="Capa_1" xmlns="http://www.w3.org/2000/svg" xmlns:xlink="http://www.w3.org/1999/xlink" x="0px" y="0px"
	 viewBox="0 0 228.6 127.5" style="enable-background:new 0 0 228.6 127.5;" xml:space="preserve">
<style type="text/css">
	.st0{fill:#E1C263;}
</style>
<g>
	<g>
		<g>
			<path class="st0" d="M109.1,47.7l-2.1,5.1l4,0L109.1,47.7z M113.1,58.6l-1.6-4.3l-5,0l-1.7,4.3l-1.7,0l4.5-11
				c0.6-1.5,0.7-2.4-0.5-2.7l0-0.1l4,0l5.6,13.8L113.1,58.6z"/>
			<path class="st0" d="M124.8,46.1l-1.3,0l0,5.1l1.3,0c1.8,0,2.9-0.9,2.9-2.6C127.7,47,126.6,46.1,124.8,46.1 M128.5,58.6l-4.4-6
				c0,0,0.1,0-0.5,0l0,6l-3.2,0l0-10.9c0-1.8-0.4-2.4-1.6-2.8l0-0.1l7.7,0c2.9,0,4.4,1.3,4.4,3.7c0,2-1.5,3.1-3.4,3.6l4.9,6.5
				L128.5,58.6z"/>
			<path class="st0" d="M147.3,58.6l0-9.9l-4.6,10.2l-5-10l0,9.8l-1.5,0l0-10.9c0-1.8-0.4-2.4-1.6-2.8l0-0.1l4.5,0l4.5,8.8l4-8.8
				l3,0l0,13.8L147.3,58.6z"/>
			<path class="st0" d="M160.3,47.7l-2.1,5.1l4,0L160.3,47.7z M164.3,58.6l-1.6-4.3l-5,0l-1.7,4.3l-1.7,0l4.5-11
				c0.6-1.5,0.7-2.4-0.5-2.7l0-0.1l4,0l5.6,13.8L164.3,58.6z"/>
			<path class="st0" d="M181.2,58.8l-8-10.1l0,9.9l-1.6,0l0-10.9c0-1.8-0.4-2.4-1.6-2.9l0-0.1l4.3,0l7,8.9l0-8.9l1.6,0l0,14
				L181.2,58.8z"/>
			<path class="st0" d="M193.6,46.1l-1.9,0l0,11.1l1.8,0c2.9,0,5.2-2.4,5.2-5.6C198.7,48.7,196.3,46.1,193.6,46.1 M194.5,58.6l-6,0
				l0-10.9c0-1.8-0.4-2.4-1.6-2.9l0-0.1l7.2,0c4.4,0,7.8,3,7.8,6.9C202,55.3,198.7,58.6,194.5,58.6"/>
			<path class="st0" d="M213,45.8c-2.4,0-4.1,2.4-4.1,5.9c0,3.4,1.7,5.9,4.1,5.9c2.4,0,4.2-2.4,4.2-5.9
				C217.2,48.2,215.4,45.8,213,45.8 M213,58.8c-4.1,0-7.5-3.2-7.5-7.2c0-4,3.3-7.2,7.5-7.2c4.2,0,7.5,3.2,7.5,7.2
				C220.5,55.7,217.2,58.8,213,58.8"/>
			<path class="st0" d="M109.2,91l-1.3,0l0,5.6l1.3,0c1.8,0,2.9-1,2.9-2.8C112.1,91.9,111.1,91,109.2,91 M110.6,97.8l-2.7,0l0,5.6
				l-3.2,0l0-10.9c0-1.8-0.4-2.4-1.6-2.8l0-0.1l7.5,0c3.3,0,4.7,1.8,4.7,4.1C115.3,96,114,97.8,110.6,97.8"/>
			<path class="st0" d="M130.7,90.9l-1.3,0l0,5.1l1.3,0c1.8,0,2.9-0.9,2.9-2.6C133.6,91.8,132.6,90.9,130.7,90.9 M134.4,103.5
				l-4.4-6c0,0,0.1,0-0.5,0l0,6l-3.2,0l0-10.9c0-1.8-0.4-2.4-1.6-2.8l0-0.1l7.7,0c2.9,0,4.4,1.3,4.4,3.7c0,2-1.5,3.1-3.4,3.6
				l4.9,6.5L134.4,103.5z"/>
			<polygon class="st0" points="148.9,103.5 148.9,89.6 152.1,89.6 152.1,103.4 			"/>
			<path class="st0" d="M164.6,103.4l0-10.9c0-1.8-0.5-2.4-1.6-2.8l0-0.1l10.8,0l0,1.5l-6.1,0l0,4.5l4.8,0l0,1.5l-4.8,0l0,4.9l6.3,0
				l0,1.5L164.6,103.4z"/>
			<polygon class="st0" points="191.9,91.1 191.9,103.4 188.7,103.4 188.7,91.1 184.3,91.1 184.3,89.6 196.3,89.6 196.3,91.1 			"/>
			<path class="st0" d="M212.9,90.7c-2.4,0-4.1,2.4-4.1,5.9c0,3.4,1.7,5.9,4.2,5.9c2.4,0,4.2-2.4,4.2-5.9
				C217.1,93.1,215.3,90.7,212.9,90.7 M212.9,103.7c-4.2,0-7.5-3.2-7.5-7.2c0-4,3.3-7.2,7.5-7.2c4.2,0,7.5,3.2,7.5,7.2
				C220.4,100.5,217.1,103.7,212.9,103.7"/>
			<path class="st0" d="M111,80.1c-4.4,0-7.6-3-7.6-7.1c0-4.1,3.1-7.2,7.3-7.2c2.9,0,4,0.6,4.8,1l-0.9,1.9c-0.7-0.7-1.8-1.6-3.3-1.5
				c-2.8,0-4.6,2.4-4.6,5.8c0,3.3,1.9,5.9,4.8,5.9c1,0,1.7-0.3,2-0.4l0-1.9c0-1.8-0.4-2.4-1.6-2.8l0-0.1l4.5,0l0,5.7
				C114.8,79.8,113,80.1,111,80.1"/>
			<path class="st0" d="M125.1,80c-3.6,0-5.9-1.9-5.9-4.8l0-9.3l3.2,0l0,8.5c0,3,1,3.9,3.4,3.9c2.1,0,3.6-1.5,3.6-4l0-8.5l1.6,0
				l0,8.8C131,78.6,128.3,80,125.1,80"/>
			<polygon class="st0" points="134.2,79.8 134.2,66 137.4,65.9 137.4,79.8 			"/>
			<path class="st0" d="M140.7,79.8l0-10.9c0-1.8-0.4-2.4-1.6-2.9l0-0.1l4.8,0l0,12.4l6.3,0l0,1.5L140.7,79.8z"/>
			<path class="st0" d="M151.9,79.8l0-10.9c0-1.8-0.4-2.4-1.6-2.8l0-0.1h4.7l0,12.4l6.3,0l0,1.5L151.9,79.8z"/>
			<path class="st0" d="M163.2,79.8l0-10.9c0-1.8-0.4-2.4-1.6-2.9l0-0.1l10.8,0l0,1.5l-6.1,0l0,4.5l4.8,0l0,1.5l-4.8,0l0,4.9l6.3,0
				l0,1.5L163.2,79.8z"/>
			<path class="st0" d="M179.6,67.3l-1.3,0l0,5.1l1.3,0c1.8,0,2.9-0.9,2.9-2.6C182.5,68.1,181.5,67.3,179.6,67.3 M183.3,79.8l-4.4-6
				c0,0,0.1,0-0.5,0l0,6l-3.2,0l0-10.9c0-1.8-0.4-2.4-1.6-2.9l0-0.1l7.7,0c2.9,0,4.4,1.2,4.4,3.6c0,2-1.5,3.1-3.4,3.7l5,6.5
				L183.3,79.8z"/>
			<path class="st0" d="M199.8,79.8l0-9.9L195.1,80l-5.1-10v9.7l-1.5,0l0-10.9c0-1.8-0.4-2.4-1.6-2.9l0-0.1l4.5,0l4.5,8.8l4-8.8l3,0
				l0,13.8L199.8,79.8z"/>
			<path class="st0" d="M212.6,67c-2.4,0-4.1,2.4-4.1,5.9c0,3.4,1.7,5.9,4.1,5.9c2.4,0,4.2-2.4,4.2-5.9C216.8,69.4,215,67,212.6,67
				 M212.6,80c-4.1,0-7.4-3.2-7.5-7.2c0-4,3.3-7.2,7.5-7.2c4.2,0,7.5,3.2,7.5,7.2C220.1,76.8,216.8,80,212.6,80"/>
			<polygon class="st0" points="100.6,40.9 100.6,40.4 222.9,40.3 222.9,40.9 			"/>
			<polygon class="st0" points="100.6,62.5 100.6,62 222.9,61.9 223,62.4 			"/>
			<polygon class="st0" points="100.6,84.1 100.6,83.5 223,83.5 223,84 			"/>
			<path class="st0" d="M143.7,24.1c-0.7-0.7-1.8-1.5-3.3-1.5c-2.9,0-4.6,2.4-4.6,5.8c0,3.3,1.9,5.9,4.8,5.9c1,0,2.3-0.3,3.9-1.5
				l0,1.9c-1.8,0.7-2.9,0.9-4.5,0.9c-4.4,0-7.6-3-7.6-7.1c0-4.1,3.1-7.2,7.3-7.2c2.9,0,4.1,0.6,4.8,1L143.7,24.1z"/>
			<path class="st0" d="M153.8,24.4l-2.1,5.1l4,0L153.8,24.4z M157.8,35.3l-1.6-4.3l-5,0l-1.7,4.3l-1.7,0l4.5-11
				c0.6-1.5,0.7-2.4-0.5-2.7l0-0.1l4,0l5.6,13.8L157.8,35.3z"/>
			<path class="st0" d="M169.7,35.6c-2.2,0-3.8-0.6-5.3-1.6l1.4-1.6c1.2,1.2,2.3,1.9,3.9,1.9c1.6,0,2.7-0.8,2.7-1.9
				c0-1-0.6-1.7-3.7-2.8c-2.7-1-4-2.4-4-4.3c0-2.3,2.2-4.1,5-4.1c2.3,0,3.8,0.9,4.8,1.6l-1.4,1.5c-0.9-1-2.1-1.8-3.5-1.8
				c-1.4,0-2.4,0.7-2.5,1.8c0,1.2,0.7,1.6,3.5,2.6c3,1.1,4.1,2.4,4.1,4.4C174.8,33.8,172.6,35.6,169.7,35.6"/>
			<path class="st0" d="M183.7,24.4l-2.1,5.1l4,0L183.7,24.4z M187.6,35.3l-1.6-4.3l-5,0l-1.7,4.3l-1.6,0l4.5-11
				c0.6-1.5,0.7-2.4-0.5-2.7l0-0.1l4,0l5.6,13.8L187.6,35.3z"/>
			<path class="st0" d="M28.6,83.5C34,87,38.8,91.6,42.6,97c1-1.7,2-3.3,3.1-4.8c-1.2-1.5-2.4-3-3.7-4.4c-1.2-1.2-2.4-2.4-3.6-3.5
				c-3-2.7-6.3-5-9.7-7c-1.5-0.8-3-1.6-4.5-2.3c-3.3-1.5-6.8-2.7-10.4-3.6l0,5.5c3.6,1,7.1,2.3,10.4,4
				C25.6,81.6,27.1,82.5,28.6,83.5"/>
			<path class="st0" d="M13.6,37.8c9.7-2.7,21.2-4.2,33.6-4.2c12.4,0,23.9,1.5,33.6,4.2l0,30.7c-3.6,0.8-7.1,2-10.5,3.4l0-23.5
				l-46.3,0l0,23.5c-3.3-1.4-6.8-2.6-10.4-3.4L13.6,37.8z"/>
			<path class="st0" d="M61.6,60.4c-2.7,0-4.9,2.8-4.9,6.3l0,13.7c3-2.5,6.3-4.7,9.7-6.5v-7.2C66.4,63.2,64.2,60.4,61.6,60.4"/>
			<path class="st0" d="M47.5,60.4c-2.7,0-4.9,2.8-4.9,6.3l0,18.1c1.6,1.7,3.2,3.4,4.6,5.2c1.6-2,3.3-3.9,5.1-5.8l0-17.6
				C52.4,63.2,50.2,60.4,47.5,60.4"/>
			<path class="st0" d="M33.5,60.4c-2.7,0-4.9,2.8-4.9,6.3l0,7.5c3.5,1.9,6.7,4.1,9.7,6.6l0-14.1C38.3,63.2,36.2,60.4,33.5,60.4"/>
			<path class="st0" d="M84.9,75.2c0.1,3.7-0.1,6.4-0.8,9.1c-2.1,8.1-9.5,24.5-35.3,32.4c0,0-0.7,0.2-1.4,0.4
				c-0.6-0.2-1.1-0.3-1.1-0.3C20,108.9,12.6,92.4,10.5,84.3c-0.7-2.6-0.8-5.5-0.8-9.1l0.1-40c10.4-3.4,23.4-5.4,37.5-5.4
				c10.3,0,20,1.1,28.5,2.9c3.2,0.7,6.3,1.5,9.1,2.5L84.9,75.2z M88.8,32.5c-11-4.2-25.6-6.8-41.6-6.8c-16,0-30.6,2.6-41.6,6.8
				l0,42.8c0,0-0.2,4.9,0.7,9.1c1.9,8.7,9.7,27.6,38.6,36.3l2.3,0.7l2.6-0.8c30.1-8.8,37.6-31.2,38.3-36.3c0.7-3.5,0.7-8.3,0.7-8.3
				l0-0.7L88.8,32.5z"/>
			<path class="st0" d="M68.4,23.2l1.7-14.5l-9.1,6.8l-2-9L52,15.1l-4.8-9L41.8,15l-6.4-7.9L33,15.6l-8.9-7.2l1.7,14.9
				C25.8,23.2,45.2,18.6,68.4,23.2"/>
			<path class="st0" d="M78.1,89.1c-9.4,3.9-17,11.2-21.5,20.4l0,0C69,103.5,75.1,95.4,78.1,89.1"/>
			<path class="st0" d="M53.2,110.9C53.2,110.9,53.2,110.9,53.2,110.9L53.2,110.9C53.2,110.9,53.2,110.9,53.2,110.9"/>
			<path class="st0" d="M46.9,112.7l0,0.2c0.2,0.1,0.3,0.1,0.5,0.1c2.1-0.6,4.1-1.4,6-2.1l0,0C58,99.1,67.6,89.8,79.5,85.6
				c0.9-2.3,1.3-4.1,1.4-6C64.8,84,51.9,96.6,46.9,112.7"/>
			<path class="st0" d="M70.4,74.9c-1.4,0.6-2.7,1.3-4,2c-3.5,1.9-6.7,4.2-9.8,6.8c-1.4,1.3-2.8,2.6-4.1,4c-1.3,1.4-2.6,2.8-3.7,4.4
				c-0.5,0.7-1.1,1.4-1.6,2.1c-1.1,1.6-2.2,3.3-3.1,5c-0.5,0.8-0.9,1.7-1.4,2.6c-1,2-1.9,4.2-2.7,6.3c-0.2,0.6-0.4,1.3-0.6,1.9
				c1.6,0.7,3.3,1.4,5.1,2c5.3-17.3,19.2-30.8,36.4-35.3l0-5.4C77.2,72.2,73.8,73.4,70.4,74.9"/>
			<path class="st0" d="M15.1,85.6C15.1,85.6,15.1,85.6,15.1,85.6L15.1,85.6C15.1,85.6,15.1,85.6,15.1,85.6"/>
			<polyline class="st0" points="15.7,87.3 15.7,87.3 15.7,87.3 			"/>
			<path class="st0" d="M16.5,89.1C16.5,89.1,16.5,89.1,16.5,89.1c2.9,6.2,8.8,14.1,20.7,20c0.1-0.2,0.1-0.4,0.2-0.6
				C32.9,99.7,25.5,92.9,16.5,89.1"/>
			<path class="st0" d="M28.6,86.7c-1.5-1-3-1.9-4.5-2.8c-3.3-1.8-6.8-3.2-10.4-4.2c0,0,0,0,0,0h0c0,1.8,0.4,4.1,1.4,5.9l0.1,0
				c9.9,3.5,18.2,10.5,23.4,19.6c0.8-2,1.7-3.9,2.7-5.9C37.8,94.5,33.5,90.1,28.6,86.7"/>
			<path class="st0" d="M80.1,114l-0.4,0l0,1.6l0.4,0c0.6,0,1-0.3,1-0.8C81.1,114.3,80.7,114,80.1,114 M81.2,118.2l-1.3-2l-0.2,0
				l0,2l-1.1,0l0-3.7c0-0.6-0.2-0.8-0.6-1l0,0l2.7,0c1,0,1.5,0.4,1.5,1.2c0,0.7-0.5,1.1-1.2,1.3l1.5,2.2L81.2,118.2z M80.3,112.3
				c-1.9,0-3.5,1.6-3.5,3.6c0,2,1.6,3.5,3.5,3.5c1.9,0,3.5-1.6,3.5-3.6C83.8,113.9,82.2,112.3,80.3,112.3 M80.3,120.1
				c-2.3,0-4.3-1.9-4.3-4.2c0-2.4,1.9-4.3,4.2-4.3c2.4,0,4.3,1.9,4.3,4.2C84.5,118.2,82.6,120.1,80.3,120.1"/>
		</g>
	</g>
</g>
</svg>
